<svg width="125" height="39" viewBox="0 0 125 39" fill="none" xmlns="http://www.w3.org/2000/svg">
<path d="M8.648 38C6.51467 38 4.872 37.7227 3.72 37.168C2.568 36.6133 1.736 35.9093 1.224 35.056C0.754667 34.2027 0.456 33.3067 0.328 32.368C0.242667 31.4293 0.2 30.576 0.2 29.808V17.52C0.2 16.88 0.242667 16.112 0.328 15.216C0.456 14.2773 0.754667 13.36 1.224 12.464C1.736 11.568 2.568 10.8213 3.72 10.224C4.91467 9.62667 6.55733 9.328 8.648 9.328H17.544C22.8773 9.328 26.6533 9.47733 28.872 9.776C31.1333 10.032 32.264 10.3093 32.264 10.608L30.984 15.472C29.7893 15.3867 28.2747 15.3013 26.44 15.216C24.6053 15.088 22.6213 15.0027 20.488 14.96C18.3973 14.8747 16.3493 14.832 14.344 14.832H11.08C9.032 14.832 8.008 15.6853 8.008 17.392V29.936C7.96533 31.6427 8.98933 32.496 11.08 32.496H14.344C16.648 32.496 18.888 32.4747 21.064 32.432C23.2827 32.3467 25.3093 32.2613 27.144 32.176C28.9787 32.048 30.4507 31.9413 31.56 31.856L34.12 36.016C34.12 37.3387 29.9173 38 21.512 38H8.648ZM80.766 38.64C79.0593 38.64 77.374 38.384 75.71 37.872C74.0887 37.3173 72.2327 35.9947 70.142 33.904L65.534 29.296C63.6567 27.376 61.5873 25.968 59.326 25.072C57.1073 24.176 54.3127 23.728 50.942 23.728H48.958V38H40.51V5.488L39.87 0.303997H68.222C70.9527 0.303997 73.086 0.666664 74.622 1.392C76.2007 2.11733 77.3527 3.07733 78.078 4.272C78.846 5.424 79.3367 6.66133 79.55 7.984C79.7633 9.30667 79.87 10.5653 79.87 11.76V12.976C79.87 13.9147 79.742 14.96 79.486 16.112C79.23 17.264 78.7393 18.3947 78.014 19.504C77.2887 20.6133 76.2433 21.552 74.878 22.32C73.5553 23.088 71.806 23.536 69.63 23.664C70.1847 23.9627 70.8887 24.432 71.742 25.072C72.5953 25.6693 73.47 26.3307 74.366 27.056C75.3047 27.7813 76.158 28.4427 76.926 29.04C77.694 29.6373 78.2913 30.064 78.718 30.32C80.254 31.216 81.6193 31.8347 82.814 32.176C84.0087 32.5173 84.99 32.7093 85.758 32.752C86.526 32.7947 86.974 32.816 87.102 32.816L85.822 38C85.438 38.128 84.798 38.256 83.902 38.384C83.006 38.5547 81.9607 38.64 80.766 38.64ZM58.558 17.904C60.1793 17.904 61.63 17.8827 62.91 17.84C64.19 17.7547 65.342 17.6693 66.366 17.584C68.2433 17.3707 69.5447 16.8587 70.27 16.048C71.038 15.1947 71.422 14.1067 71.422 12.784V11.312C71.422 9.94666 71.0593 8.79467 70.334 7.856C69.6087 6.91733 68.3073 6.448 66.43 6.448H48.958V17.584C50.8353 17.712 52.5633 17.7973 54.142 17.84C55.7207 17.8827 57.1927 17.904 58.558 17.904ZM100.038 38C97.9473 38 96.3047 37.7227 95.11 37.168C93.958 36.6133 93.126 35.9093 92.614 35.056C92.1447 34.2027 91.846 33.3067 91.718 32.368C91.6327 31.4293 91.59 30.576 91.59 29.808V9.328H99.398V29.936C99.3553 30.8747 99.654 31.536 100.294 31.92C100.977 32.304 101.702 32.496 102.47 32.496H115.142C116.081 32.496 116.635 32.4107 116.806 32.24C116.977 32.0693 117.062 31.5147 117.062 30.576V9.328H124.87V38H119.622L117.19 36.72C115.483 37.0613 113.457 37.36 111.11 37.616C108.806 37.872 106.203 38 103.302 38H100.038Z" fill="black"/>
</svg>
